# xmcd
#
# Track frame offsets: 
#        150
#        10717
#        25483
#        36364
#        49195
#        62286
#        77964
#        87080
#        96926
#        112566
#        122382
#        133736
#        144342
#        156859
#
# Disc length: 2263 seconds
#
# Revision: 7
# Processed by: cddbd v1.5.2PL0 Copyright (c) Steve Scherf et al.
# Submitted via: ExactAudioCopyFreeDBPlugin 1.0
#
DISCID=a708d50e
DTITLE=DESPERADO - DESPERADO
DYEAR=2000
DGENRE=Country
TTITLE0=Roger Miller - King Of The Road
TTITLE1=Kingston trio - Tom Dooley
TTITLE2=Sammi Smith - Help Me Make It Through The Night
TTITLE3=Lynn Anderson - Rose Garden
TTITLE4=Kenny Rogers - Ruby (Don't Take Your Love To Town)
TTITLE5=Billie Jo Spears - Blanket On The Ground
TTITLE6=Frankie Laine - Rawhide
TTITLE7=Johnny Cash - Ballad Of A Teenage Queen
TTITLE8=Skeeter Davis - Desperado
TTITLE9=Willy Nelson - Let's Pretend
TTITLE10=Dolly Parton - Makin' Believe
TTITLE11=Freddy Fender - A Man Can Cry
TTITLE12=Gene Autry - Goodnight Irene
TTITLE13=Charlie Rich - Behind Closed Doors
EXTD=
EXTT0=
EXTT1=
EXTT2=
EXTT3=
EXTT4=
EXTT5=
EXTT6=
EXTT7=
EXTT8=
EXTT9=
EXTT10=
EXTT11=
EXTT12=
EXTT13=
PLAYORDER=
